<svg xmlns="http://www.w3.org/2000/svg" viewBox="0 0 72 72"><rect width="72" height="72" rx="18" fill="#15161A"/><svg x="7" y="14" width="58" height="44" viewBox="6 2 118 90"><line x1="44" y1="12" x2="44" y2="22" stroke="#F6F4EF" stroke-width="5" stroke-linecap="round"/><circle cx="44" cy="9" r="6" fill="#E8702A"/><rect x="11" y="35" width="8" height="18" rx="3" fill="#F6F4EF"/><rect x="69" y="35" width="8" height="18" rx="3" fill="#F6F4EF"/><rect x="18" y="22" width="52" height="44" rx="10" fill="#F6F4EF"/><circle cx="34" cy="40" r="8" fill="#15161A"/><circle cx="54" cy="40" r="8" fill="#15161A"/><circle cx="36.5" cy="40" r="3.8" fill="#F6F4EF"/><circle cx="56.5" cy="40" r="3.8" fill="#F6F4EF"/><rect x="30" y="52" width="28" height="8" rx="2.5" fill="#15161A"/><rect x="38" y="65" width="12" height="8" fill="#F6F4EF"/><rect x="24" y="72" width="40" height="16" rx="5" fill="#F6F4EF"/><rect x="82" y="50" width="17" height="12" rx="6" fill="#E8702A"/><rect x="102" y="50" width="12" height="12" rx="6" fill="#E8702A" fill-opacity="0.5"/><rect x="117" y="50" width="7" height="12" rx="3.5" fill="#E8702A" fill-opacity="0.22"/></svg></svg>